<svg width="1440" height="4561" viewBox="0 0 1440 4561" fill="none" xmlns="http://www.w3.org/2000/svg">
<g clip-path="url(#clip0_165_4)">
<rect width="1440" height="4561" fill="url(#paint0_linear_165_4)"/>
<g filter="url(#filter0_f_165_4)">
<ellipse cx="1008.73" cy="555" rx="215.892" ry="277.668" transform="rotate(41.5394 1008.73 555)" fill="#7E00E1" fill-opacity="0.77"/>
</g>
<g filter="url(#filter1_f_165_4)">
<ellipse cx="427.39" cy="269.022" rx="152.648" ry="365.819" transform="rotate(89.7846 427.39 269.022)" fill="#6E81C4" fill-opacity="0.36"/>
</g>
<g filter="url(#filter2_d_165_4)">
<g filter="url(#filter3_d_165_4)">
<circle cx="1128.24" cy="991.243" r="100" transform="rotate(26.0462 1128.24 991.243)" fill="url(#paint1_linear_165_4)" shape-rendering="crispEdges"/>
</g>
<path d="M1134.85 982.662L1127.01 998.699L1123.28 999.98L1112.67 994.763L1111.39 991.032L1119.23 974.994L1122.96 973.713L1133.57 978.93L1134.85 982.662ZM1126.13 976.596L1116.89 995.49L1120.11 997.097L1129.35 978.203L1126.13 976.596ZM1141.41 1007.47L1140.89 1008.55L1129.16 1002.82L1129.69 1001.74L1132.65 1003.19L1141.87 984.325L1137.3 985.896L1136.87 984.652L1141.81 982.957L1148.6 986.277L1138.85 1006.22L1141.41 1007.47Z" fill="#000AFF"/>
</g>
<g filter="url(#filter4_d_165_4)">
<g filter="url(#filter5_d_165_4)">
<circle cx="93.2428" cy="1270.24" r="100" transform="rotate(32.8291 93.2428 1270.24)" fill="url(#paint2_linear_165_4)" shape-rendering="crispEdges"/>
</g>
<path d="M80.9654 1272.79L83.6123 1274.5L86.5398 1269.96L92.3378 1273.71L89.6217 1277.91L87.4237 1278.39L74.5168 1270.06L80.1604 1261.31L82.7732 1260.75L89.63 1265.17L94.9971 1256.86L92.3502 1255.15L89.4227 1259.69L83.6247 1255.94L85.6902 1252.74L89.5472 1251.91L99.1013 1258.08L99.9331 1261.93L96.1273 1267.83L92.6851 1268.57L86.3325 1264.48L80.9654 1272.79ZM117.58 1273.32L107.903 1288.32L104.046 1289.15L94.1302 1282.72L93.2983 1278.86L102.975 1263.86L106.832 1263.03L116.748 1269.46L117.58 1273.32ZM109.635 1266.26L98.2343 1283.94L101.243 1285.91L112.644 1268.24L109.635 1266.26Z" fill="#000AFF"/>
</g>
<g filter="url(#filter6_d_165_4)">
<circle cx="1360.01" cy="266.741" r="100" transform="rotate(-129.377 1360.01 266.741)" fill="url(#paint3_linear_165_4)" shape-rendering="crispEdges"/>
<circle cx="1360.01" cy="266.741" r="99.5" transform="rotate(-129.377 1360.01 266.741)" stroke="url(#paint4_linear_165_4)" shape-rendering="crispEdges"/>
</g>
<path d="M1372.47 268.063L1370.48 265.628L1366.3 269.054L1361.92 263.721L1365.8 260.542L1368.04 260.763L1377.78 272.636L1369.73 279.24L1367.07 278.978L1361.9 272.671L1354.24 278.951L1356.24 281.386L1360.42 277.96L1364.79 283.294L1361.85 285.711L1357.92 285.325L1350.71 276.536L1351.1 272.609L1356.52 268.155L1360.03 268.5L1364.82 274.344L1372.47 268.063ZM1359.82 252.641L1357.82 250.206L1353.64 253.632L1349.27 248.299L1353.14 245.12L1355.38 245.341L1365.12 257.214L1357.08 263.818L1354.42 263.556L1349.24 257.249L1341.59 263.529L1343.58 265.964L1347.76 262.538L1352.14 267.872L1349.19 270.289L1345.26 269.903L1338.05 261.114L1338.44 257.187L1343.86 252.733L1347.37 253.078L1352.16 258.922L1359.82 252.641Z" fill="#000AFF"/>
<g filter="url(#filter7_d_165_4)">
<g filter="url(#filter8_d_165_4)">
<circle cx="195.134" cy="2405.13" r="100" transform="rotate(131.351 195.134 2405.13)" fill="url(#paint5_linear_165_4)" shape-rendering="crispEdges"/>
</g>
<path d="M201.667 2413.77L188.268 2401.98L188.017 2398.04L195.848 2389.19L199.786 2388.94L213.186 2400.73L213.437 2404.67L205.605 2413.52L201.667 2413.77ZM209.821 2406.96L194.034 2393.07L191.633 2395.75L207.42 2409.64L209.821 2406.96ZM176.003 2413.55L175.102 2412.76L183.724 2402.96L184.625 2403.76L182.444 2406.23L198.209 2420.11L197.901 2415.28L199.213 2415.2L199.546 2420.4L194.551 2426.08L177.886 2411.41L176.003 2413.55Z" fill="#000AFF"/>
</g>
<g filter="url(#filter9_d_165_4)">
<g filter="url(#filter10_d_165_4)">
<circle cx="1257.21" cy="1527.21" r="100" transform="rotate(-174.444 1257.21 1527.21)" fill="url(#paint6_linear_165_4)" shape-rendering="crispEdges"/>
</g>
<path d="M1266.96 1519.32L1263.82 1519.01L1263.3 1524.39L1256.43 1523.72L1256.91 1518.73L1258.65 1517.3L1273.94 1518.79L1272.93 1529.15L1270.87 1530.85L1262.75 1530.06L1261.79 1539.91L1264.92 1540.22L1265.44 1534.85L1272.31 1535.51L1271.94 1539.31L1268.9 1541.81L1257.58 1540.71L1255.07 1537.66L1255.75 1530.68L1258.47 1528.44L1266 1529.17L1266.96 1519.32ZM1247.1 1517.39L1243.96 1517.08L1243.44 1522.46L1236.57 1521.79L1237.06 1516.8L1238.79 1515.37L1254.08 1516.86L1253.07 1527.22L1251.01 1528.92L1242.89 1528.13L1241.93 1537.98L1245.06 1538.29L1245.59 1532.91L1252.45 1533.58L1252.09 1537.37L1249.04 1539.88L1237.72 1538.78L1235.22 1535.73L1235.9 1528.75L1238.61 1526.51L1246.14 1527.24L1247.1 1517.39Z" fill="#000AFF"/>
</g>
<g filter="url(#filter11_d_165_4)">
<g filter="url(#filter12_d_165_4)">
<circle cx="244.563" cy="649.085" r="50" transform="rotate(84.834 244.563 649.085)" fill="url(#paint7_linear_165_4)" shape-rendering="crispEdges"/>
</g>
<path d="M234.994 647.248L233.799 647.356L232.624 634.359L233.819 634.251L234.116 637.538L255.031 635.647L251.317 632.549L252.159 631.539L256.167 634.881L256.847 642.411L234.738 644.41L234.994 647.248ZM235.791 656.059L236.074 659.196L241.452 658.71L242.074 665.582L237.084 666.033L235.357 664.592L233.974 649.295L244.342 648.357L246.395 650.069L247.129 658.196L256.989 657.305L256.705 654.168L251.327 654.654L250.706 647.782L254.501 647.439L257.531 649.966L258.554 661.29L256.027 664.32L249.035 664.952L246.331 662.696L245.651 655.167L235.791 656.059Z" fill="url(#paint8_linear_165_4)"/>
</g>
<g filter="url(#filter13_d_165_4)">
<circle cx="919.492" cy="2900.49" r="100" transform="rotate(-100.482 919.492 2900.49)" fill="url(#paint9_linear_165_4)" shape-rendering="crispEdges"/>
<circle cx="919.492" cy="2900.49" r="99.5" transform="rotate(-100.482 919.492 2900.49)" stroke="url(#paint10_linear_165_4)" shape-rendering="crispEdges"/>
</g>
<path d="M908.665 2900.29L926.217 2897.04L929.468 2899.28L931.589 2910.91L929.353 2914.16L911.801 2917.41L908.55 2915.17L906.429 2903.54L908.665 2900.29ZM908.982 2910.91L929.661 2907.09L929.036 2903.54L908.357 2907.37L908.982 2910.91ZM924.696 2880.25L925.876 2880.03L928.25 2892.86L927.07 2893.08L926.47 2889.84L905.82 2893.66L909.805 2896.4L909.06 2897.48L904.76 2894.52L903.385 2887.09L925.214 2883.05L924.696 2880.25Z" fill="#000AFF"/>
<g filter="url(#filter14_d_165_4)">
<path d="M1058.31 2483.22C1089.74 2498.18 1115.27 2517.74 1131.16 2537.23C1147.1 2556.8 1153.11 2575.98 1146.25 2590.4C1139.4 2604.81 1120.72 2612.25 1095.49 2612.23C1070.34 2612.2 1039.05 2604.73 1007.62 2589.78C976.192 2574.83 950.658 2555.27 934.77 2535.77C918.83 2516.21 912.822 2497.02 919.678 2482.61C926.533 2468.2 945.211 2460.75 970.445 2460.78C995.595 2460.81 1026.88 2468.27 1058.31 2483.22Z" stroke="url(#paint11_linear_165_4)" stroke-width="2" shape-rendering="crispEdges"/>
</g>
<g filter="url(#filter15_d_165_4)">
<path d="M177.192 1903.37C178.366 1878.43 205.473 1859.05 238.272 1860.59C271.07 1862.14 296.235 1883.98 295.061 1908.92C293.886 1933.85 266.779 1953.24 233.981 1951.69C201.182 1950.15 176.017 1928.3 177.192 1903.37Z" stroke="url(#paint12_linear_165_4)" stroke-width="2" shape-rendering="crispEdges"/>
</g>
<g filter="url(#filter16_d_165_4)">
<path d="M1232.37 1963.34C1255.63 1967.82 1275.38 1978.42 1288.52 1991.87C1301.66 2005.33 1308.13 2021.58 1305.07 2037.44C1302.01 2053.29 1289.97 2065.97 1272.77 2073.58C1255.57 2081.19 1233.29 2083.69 1210.04 2079.2C1186.78 2074.72 1167.03 2064.12 1153.89 2050.67C1140.75 2037.21 1134.28 2020.96 1137.34 2005.1C1140.39 1989.25 1152.44 1976.57 1169.64 1968.96C1186.84 1961.35 1209.12 1958.85 1232.37 1963.34Z" stroke="url(#paint13_linear_165_4)" stroke-width="2" shape-rendering="crispEdges"/>
</g>
<path d="M457.27 4115.77C440.353 4085.95 451.67 4043.47 484.397 3998.62C517.064 3953.86 570.831 3907.1 637.971 3869.01C705.111 3830.92 772.828 3808.75 828.01 3803.67C883.293 3798.58 925.568 3810.66 942.486 3840.48C959.403 3870.3 948.086 3912.78 915.359 3957.63C882.692 4002.39 828.926 4049.15 761.785 4087.24C694.645 4125.33 626.928 4147.5 571.746 4152.58C516.463 4157.67 474.188 4145.59 457.27 4115.77Z" stroke="url(#paint14_linear_165_4)" stroke-width="2"/>
<path d="M1513.21 451.983C1523.33 478.173 1519.29 508.718 1502.75 541.779C1486.2 574.84 1457.28 610.162 1418.14 645.621C1339.87 716.526 1221.18 787.615 1080.59 841.973C940.01 896.33 804.366 923.582 698.757 923.774C645.943 923.869 600.778 917.196 566.296 903.864C531.816 890.532 508.275 870.653 498.148 844.463C488.021 818.273 492.066 787.728 508.608 754.667C525.151 721.606 554.08 686.284 593.22 650.825C671.486 579.92 790.18 508.831 930.764 454.473C1071.35 400.116 1206.99 372.863 1312.6 372.672C1365.41 372.577 1410.58 379.249 1445.06 392.582C1479.54 405.914 1503.08 425.793 1513.21 451.983Z" stroke="url(#paint15_linear_165_4)" stroke-width="5"/>
<g filter="url(#filter17_f_165_4)">
<ellipse cx="558" cy="1416.5" rx="48" ry="54.5" fill="white"/>
</g>
<g filter="url(#filter18_f_165_4)">
<ellipse cx="562.291" cy="3238.93" rx="253.291" ry="413.443" transform="rotate(65.2907 562.291 3238.93)" fill="#6E81C4" fill-opacity="0.36"/>
</g>
<path d="M243.293 1224.35C244.09 1226.18 244.067 1228.42 243.132 1231.09C242.195 1233.76 240.365 1236.8 237.669 1240.14C232.278 1246.82 223.563 1254.54 212.151 1262.81C189.342 1279.34 155.942 1297.96 117.359 1314.71C78.7764 1331.45 42.3718 1343.14 14.7161 1348.52C0.880165 1351.2 -10.7115 1352.3 -19.2704 1351.68C-23.5511 1351.37 -27.0182 1350.63 -29.6126 1349.49C-32.2005 1348.35 -33.8509 1346.84 -34.648 1345C-35.445 1343.17 -35.4217 1340.93 -34.487 1338.26C-33.55 1335.58 -31.72 1332.55 -29.0236 1329.21C-23.6322 1322.53 -14.9171 1314.81 -3.50586 1306.54C19.3032 1290 52.7033 1271.39 91.2862 1254.64C129.869 1237.89 166.274 1226.2 193.929 1220.83C207.765 1218.15 219.357 1217.05 227.916 1217.67C232.197 1217.98 235.664 1218.72 238.258 1219.86C240.846 1221 242.496 1222.51 243.293 1224.35Z" stroke="url(#paint16_linear_165_4)" stroke-width="2"/>
<path d="M1198.94 1633.61C1194.43 1630.45 1191.84 1624.73 1191.21 1616.84C1190.59 1608.95 1191.93 1599.04 1195.12 1587.76C1201.48 1565.19 1215.13 1537.35 1234.58 1509.59C1254.02 1481.83 1275.54 1459.49 1294.57 1445.8C1304.09 1438.96 1312.94 1434.31 1320.57 1432.2C1328.2 1430.09 1334.46 1430.57 1338.98 1433.74C1343.49 1436.9 1346.08 1442.62 1346.71 1450.51C1347.33 1458.4 1345.99 1468.31 1342.8 1479.6C1336.44 1502.16 1322.79 1530.01 1303.34 1557.76C1283.89 1585.52 1262.38 1607.86 1243.35 1621.55C1233.83 1628.4 1224.98 1633.05 1217.35 1635.15C1209.72 1637.26 1203.46 1636.78 1198.94 1633.61Z" stroke="url(#paint17_linear_165_4)" stroke-width="2"/>
<path d="M226.907 2554.19C224.951 2554.62 222.761 2554.16 220.322 2552.73C217.878 2551.29 215.253 2548.91 212.497 2545.62C206.987 2539.04 201.094 2529 195.179 2516.21C183.358 2490.64 171.543 2454.27 162.557 2413.18C153.571 2372.09 149.128 2334.11 149.196 2305.94C149.231 2291.85 150.394 2280.26 152.655 2271.98C153.786 2267.84 155.177 2264.58 156.799 2262.26C158.417 2259.94 160.218 2258.61 162.173 2258.18C164.129 2257.76 166.32 2258.21 168.758 2259.64C171.202 2261.08 173.827 2263.46 176.583 2266.75C182.093 2273.33 187.986 2283.37 193.901 2296.17C205.722 2321.74 217.537 2358.1 226.523 2399.19C235.509 2440.28 239.952 2478.26 239.884 2506.43C239.85 2520.53 238.686 2532.11 236.425 2540.39C235.294 2544.53 233.903 2547.79 232.281 2550.11C230.663 2552.43 228.862 2553.76 226.907 2554.19Z" stroke="url(#paint18_linear_165_4)" stroke-width="2"/>
<path d="M798.806 2791.32C800.236 2789.92 802.334 2789.14 805.16 2789.06C807.994 2788.98 811.483 2789.61 815.565 2790.93C823.727 2793.58 834.052 2798.96 845.856 2806.66C869.449 2822.06 898.766 2846.61 928.194 2876.66C957.622 2906.71 981.548 2936.54 996.445 2960.45C1003.9 2972.41 1009.06 2982.85 1011.54 2991.06C1012.78 2995.17 1013.33 2998.67 1013.19 3001.5C1013.05 3004.33 1012.23 3006.41 1010.8 3007.81C1009.37 3009.21 1007.27 3009.99 1004.44 3010.07C1001.61 3010.15 998.122 3009.52 994.04 3008.2C985.878 3005.55 975.553 3000.17 963.749 2992.46C940.156 2977.07 910.839 2952.52 881.411 2922.47C851.983 2892.42 828.057 2862.59 813.16 2838.68C805.707 2826.72 800.543 2816.28 798.065 2808.07C796.825 2803.96 796.274 2800.46 796.414 2797.63C796.554 2794.8 797.375 2792.72 798.806 2791.32Z" stroke="url(#paint19_linear_165_4)" stroke-width="2"/>
<path d="M381.414 719.054C380.458 720.813 378.68 722.172 376.002 723.078C373.316 723.987 369.798 724.413 365.506 724.344C356.926 724.205 345.477 722.09 331.932 718.19C304.86 710.394 269.632 695.53 232.681 675.435C195.731 655.339 164.107 633.847 142.85 615.359C132.215 606.109 124.217 597.648 119.437 590.521C117.046 586.957 115.492 583.771 114.795 581.023C114.1 578.282 114.275 576.052 115.231 574.293C116.188 572.535 117.965 571.176 120.644 570.27C123.329 569.361 126.847 568.935 131.139 569.004C139.719 569.143 151.169 571.258 164.713 575.158C191.785 582.954 227.013 597.818 263.964 617.913C300.914 638.009 332.538 659.501 353.795 677.989C364.43 687.239 372.428 695.7 377.208 702.827C379.599 706.391 381.153 709.577 381.85 712.324C382.545 715.065 382.37 717.296 381.414 719.054Z" stroke="url(#paint20_linear_165_4)" stroke-width="2"/>
<path d="M1505 252.26C1505 254.262 1504.09 256.305 1502.17 258.381C1500.24 260.462 1497.36 262.517 1493.55 264.506C1485.95 268.483 1474.88 272.094 1461.12 275.138C1433.61 281.222 1395.56 284.992 1353.5 284.989C1311.44 284.986 1273.39 281.211 1245.88 275.123C1232.12 272.078 1221.05 268.465 1213.45 264.487C1209.65 262.498 1206.76 260.442 1204.83 258.36C1202.91 256.284 1202 254.241 1202 252.24C1202 250.238 1202.92 248.195 1204.84 246.119C1206.76 244.038 1209.65 241.983 1213.45 239.994C1221.06 236.017 1232.12 232.406 1245.89 229.362C1273.39 223.279 1311.44 219.509 1353.5 219.511C1395.57 219.514 1433.62 223.289 1461.12 229.377C1474.88 232.422 1485.95 236.035 1493.56 240.013C1497.36 242.003 1500.25 244.058 1502.17 246.14C1504.09 248.216 1505 250.259 1505 252.26Z" stroke="url(#paint21_linear_165_4)" stroke-width="2"/>
<path d="M1266.29 937.347C1267.09 939.183 1267.07 941.42 1266.13 944.089C1265.2 946.764 1263.37 949.8 1260.67 953.139C1255.28 959.815 1246.56 967.536 1235.15 975.809C1212.34 992.344 1178.94 1010.96 1140.36 1027.71C1101.78 1044.45 1065.37 1056.14 1037.72 1061.52C1023.88 1064.2 1012.29 1065.3 1003.73 1064.68C999.449 1064.37 995.982 1063.63 993.387 1062.49C990.799 1061.35 989.149 1059.84 988.352 1058C987.555 1056.17 987.578 1053.93 988.513 1051.26C989.45 1048.58 991.28 1045.55 993.976 1042.21C999.368 1035.53 1008.08 1027.81 1019.49 1019.54C1042.3 1003 1075.7 984.392 1114.29 967.643C1152.87 950.894 1189.27 939.203 1216.93 933.832C1230.77 931.145 1242.36 930.051 1250.92 930.671C1255.2 930.982 1258.66 931.718 1261.26 932.86C1263.85 934 1265.5 935.51 1266.29 937.347Z" stroke="url(#paint22_linear_165_4)" stroke-width="2"/>
</g>
<defs>
<filter id="filter0_f_165_4" x="563.739" y="102.605" width="889.975" height="904.79" filterUnits="userSpaceOnUse" color-interpolation-filters="sRGB">
<feFlood flood-opacity="0" result="BackgroundImageFix"/>
<feBlend mode="normal" in="SourceGraphic" in2="BackgroundImageFix" result="shape"/>
<feGaussianBlur stdDeviation="100" result="effect1_foregroundBlur_165_4"/>
</filter>
<filter id="filter1_f_165_4" x="-138.427" y="-83.6313" width="1131.63" height="705.306" filterUnits="userSpaceOnUse" color-interpolation-filters="sRGB">
<feFlood flood-opacity="0" result="BackgroundImageFix"/>
<feBlend mode="normal" in="SourceGraphic" in2="BackgroundImageFix" result="shape"/>
<feGaussianBlur stdDeviation="100" result="effect1_foregroundBlur_165_4"/>
</filter>
<filter id="filter2_d_165_4" x="1018.22" y="885.22" width="220.045" height="220.045" filterUnits="userSpaceOnUse" color-interpolation-filters="sRGB">
<feFlood flood-opacity="0" result="BackgroundImageFix"/>
<feColorMatrix in="SourceAlpha" type="matrix" values="0 0 0 0 0 0 0 0 0 0 0 0 0 0 0 0 0 0 127 0" result="hardAlpha"/>
<feOffset dy="4"/>
<feGaussianBlur stdDeviation="5"/>
<feComposite in2="hardAlpha" operator="out"/>
<feColorMatrix type="matrix" values="0 0 0 0 0.0768677 0 0 0 0 0.0171751 0 0 0 0 0.763333 0 0 0 0.25 0"/>
<feBlend mode="normal" in2="BackgroundImageFix" result="effect1_dropShadow_165_4"/>
<feBlend mode="normal" in="SourceGraphic" in2="effect1_dropShadow_165_4" result="shape"/>
</filter>
<filter id="filter3_d_165_4" x="1024.22" y="891.22" width="208.045" height="208.045" filterUnits="userSpaceOnUse" color-interpolation-filters="sRGB">
<feFlood flood-opacity="0" result="BackgroundImageFix"/>
<feColorMatrix in="SourceAlpha" type="matrix" values="0 0 0 0 0 0 0 0 0 0 0 0 0 0 0 0 0 0 127 0" result="hardAlpha"/>
<feOffset dy="4"/>
<feGaussianBlur stdDeviation="2"/>
<feComposite in2="hardAlpha" operator="out"/>
<feColorMatrix type="matrix" values="0 0 0 0 0 0 0 0 0 0 0 0 0 0 0 0 0 0 0.05 0"/>
<feBlend mode="normal" in2="BackgroundImageFix" result="effect1_dropShadow_165_4"/>
<feBlend mode="normal" in="SourceGraphic" in2="effect1_dropShadow_165_4" result="shape"/>
</filter>
<filter id="filter4_d_165_4" x="-16.769" y="1164.23" width="220.024" height="220.024" filterUnits="userSpaceOnUse" color-interpolation-filters="sRGB">
<feFlood flood-opacity="0" result="BackgroundImageFix"/>
<feColorMatrix in="SourceAlpha" type="matrix" values="0 0 0 0 0 0 0 0 0 0 0 0 0 0 0 0 0 0 127 0" result="hardAlpha"/>
<feOffset dy="4"/>
<feGaussianBlur stdDeviation="5"/>
<feComposite in2="hardAlpha" operator="out"/>
<feColorMatrix type="matrix" values="0 0 0 0 0.0116404 0 0 0 0 0.821667 0 0 0 0 0.189846 0 0 0 0.25 0"/>
<feBlend mode="normal" in2="BackgroundImageFix" result="effect1_dropShadow_165_4"/>
<feBlend mode="normal" in="SourceGraphic" in2="effect1_dropShadow_165_4" result="shape"/>
</filter>
<filter id="filter5_d_165_4" x="-10.769" y="1170.23" width="208.024" height="208.024" filterUnits="userSpaceOnUse" color-interpolation-filters="sRGB">
<feFlood flood-opacity="0" result="BackgroundImageFix"/>
<feColorMatrix in="SourceAlpha" type="matrix" values="0 0 0 0 0 0 0 0 0 0 0 0 0 0 0 0 0 0 127 0" result="hardAlpha"/>
<feOffset dy="4"/>
<feGaussianBlur stdDeviation="2"/>
<feComposite in2="hardAlpha" operator="out"/>
<feColorMatrix type="matrix" values="0 0 0 0 0 0 0 0 0 0 0 0 0 0 0 0 0 0 0.05 0"/>
<feBlend mode="normal" in2="BackgroundImageFix" result="effect1_dropShadow_165_4"/>
<feBlend mode="normal" in="SourceGraphic" in2="effect1_dropShadow_165_4" result="shape"/>
</filter>
<filter id="filter6_d_165_4" x="1256" y="166.738" width="208.006" height="208.006" filterUnits="userSpaceOnUse" color-interpolation-filters="sRGB">
<feFlood flood-opacity="0" result="BackgroundImageFix"/>
<feColorMatrix in="SourceAlpha" type="matrix" values="0 0 0 0 0 0 0 0 0 0 0 0 0 0 0 0 0 0 127 0" result="hardAlpha"/>
<feOffset dy="4"/>
<feGaussianBlur stdDeviation="2"/>
<feComposite in2="hardAlpha" operator="out"/>
<feColorMatrix type="matrix" values="0 0 0 0 0 0 0 0 0 0 0 0 0 0 0 0 0 0 0.05 0"/>
<feBlend mode="normal" in2="BackgroundImageFix" result="effect1_dropShadow_165_4"/>
<feBlend mode="normal" in="SourceGraphic" in2="effect1_dropShadow_165_4" result="shape"/>
</filter>
<filter id="filter7_d_165_4" x="91.1333" y="2305.13" width="208.002" height="208.002" filterUnits="userSpaceOnUse" color-interpolation-filters="sRGB">
<feFlood flood-opacity="0" result="BackgroundImageFix"/>
<feColorMatrix in="SourceAlpha" type="matrix" values="0 0 0 0 0 0 0 0 0 0 0 0 0 0 0 0 0 0 127 0" result="hardAlpha"/>
<feOffset dy="4"/>
<feGaussianBlur stdDeviation="2"/>
<feComposite in2="hardAlpha" operator="out"/>
<feColorMatrix type="matrix" values="0 0 0 0 0.0276126 0 0 0 0 0.135995 0 0 0 0 0.705 0 0 0 0.25 0"/>
<feBlend mode="normal" in2="BackgroundImageFix" result="effect1_dropShadow_165_4"/>
<feBlend mode="normal" in="SourceGraphic" in2="effect1_dropShadow_165_4" result="shape"/>
</filter>
<filter id="filter8_d_165_4" x="91.1333" y="2305.13" width="208.002" height="208.002" filterUnits="userSpaceOnUse" color-interpolation-filters="sRGB">
<feFlood flood-opacity="0" result="BackgroundImageFix"/>
<feColorMatrix in="SourceAlpha" type="matrix" values="0 0 0 0 0 0 0 0 0 0 0 0 0 0 0 0 0 0 127 0" result="hardAlpha"/>
<feOffset dy="4"/>
<feGaussianBlur stdDeviation="2"/>
<feComposite in2="hardAlpha" operator="out"/>
<feColorMatrix type="matrix" values="0 0 0 0 0 0 0 0 0 0 0 0 0 0 0 0 0 0 0.05 0"/>
<feBlend mode="normal" in2="BackgroundImageFix" result="effect1_dropShadow_165_4"/>
<feBlend mode="normal" in="SourceGraphic" in2="effect1_dropShadow_165_4" result="shape"/>
</filter>
<filter id="filter9_d_165_4" x="1147.21" y="1421.2" width="220.014" height="220.014" filterUnits="userSpaceOnUse" color-interpolation-filters="sRGB">
<feFlood flood-opacity="0" result="BackgroundImageFix"/>
<feColorMatrix in="SourceAlpha" type="matrix" values="0 0 0 0 0 0 0 0 0 0 0 0 0 0 0 0 0 0 127 0" result="hardAlpha"/>
<feOffset dy="4"/>
<feGaussianBlur stdDeviation="5"/>
<feComposite in2="hardAlpha" operator="out"/>
<feColorMatrix type="matrix" values="0 0 0 0 0.130501 0 0 0 0 0.225088 0 0 0 0 0.721667 0 0 0 0.25 0"/>
<feBlend mode="normal" in2="BackgroundImageFix" result="effect1_dropShadow_165_4"/>
<feBlend mode="normal" in="SourceGraphic" in2="effect1_dropShadow_165_4" result="shape"/>
</filter>
<filter id="filter10_d_165_4" x="1153.21" y="1427.2" width="208.014" height="208.014" filterUnits="userSpaceOnUse" color-interpolation-filters="sRGB">
<feFlood flood-opacity="0" result="BackgroundImageFix"/>
<feColorMatrix in="SourceAlpha" type="matrix" values="0 0 0 0 0 0 0 0 0 0 0 0 0 0 0 0 0 0 127 0" result="hardAlpha"/>
<feOffset dy="4"/>
<feGaussianBlur stdDeviation="2"/>
<feComposite in2="hardAlpha" operator="out"/>
<feColorMatrix type="matrix" values="0 0 0 0 0 0 0 0 0 0 0 0 0 0 0 0 0 0 0.05 0"/>
<feBlend mode="normal" in2="BackgroundImageFix" result="effect1_dropShadow_165_4"/>
<feBlend mode="normal" in="SourceGraphic" in2="effect1_dropShadow_165_4" result="shape"/>
</filter>
<filter id="filter11_d_165_4" x="190.56" y="599.082" width="108.006" height="108.006" filterUnits="userSpaceOnUse" color-interpolation-filters="sRGB">
<feFlood flood-opacity="0" result="BackgroundImageFix"/>
<feColorMatrix in="SourceAlpha" type="matrix" values="0 0 0 0 0 0 0 0 0 0 0 0 0 0 0 0 0 0 127 0" result="hardAlpha"/>
<feOffset dy="4"/>
<feGaussianBlur stdDeviation="2"/>
<feComposite in2="hardAlpha" operator="out"/>
<feColorMatrix type="matrix" values="0 0 0 0 0.181974 0 0 0 0 0.206228 0 0 0 0 0.788333 0 0 0 0.25 0"/>
<feBlend mode="normal" in2="BackgroundImageFix" result="effect1_dropShadow_165_4"/>
<feBlend mode="normal" in="SourceGraphic" in2="effect1_dropShadow_165_4" result="shape"/>
</filter>
<filter id="filter12_d_165_4" x="190.56" y="599.082" width="108.006" height="108.006" filterUnits="userSpaceOnUse" color-interpolation-filters="sRGB">
<feFlood flood-opacity="0" result="BackgroundImageFix"/>
<feColorMatrix in="SourceAlpha" type="matrix" values="0 0 0 0 0 0 0 0 0 0 0 0 0 0 0 0 0 0 127 0" result="hardAlpha"/>
<feOffset dy="4"/>
<feGaussianBlur stdDeviation="2"/>
<feComposite in2="hardAlpha" operator="out"/>
<feColorMatrix type="matrix" values="0 0 0 0 0 0 0 0 0 0 0 0 0 0 0 0 0 0 0.05 0"/>
<feBlend mode="normal" in2="BackgroundImageFix" result="effect1_dropShadow_165_4"/>
<feBlend mode="normal" in="SourceGraphic" in2="effect1_dropShadow_165_4" result="shape"/>
</filter>
<filter id="filter13_d_165_4" x="815.474" y="2800.47" width="208.035" height="208.035" filterUnits="userSpaceOnUse" color-interpolation-filters="sRGB">
<feFlood flood-opacity="0" result="BackgroundImageFix"/>
<feColorMatrix in="SourceAlpha" type="matrix" values="0 0 0 0 0 0 0 0 0 0 0 0 0 0 0 0 0 0 127 0" result="hardAlpha"/>
<feOffset dy="4"/>
<feGaussianBlur stdDeviation="2"/>
<feComposite in2="hardAlpha" operator="out"/>
<feColorMatrix type="matrix" values="0 0 0 0 0 0 0 0 0 0 0 0 0 0 0 0 0 0 0.05 0"/>
<feBlend mode="normal" in2="BackgroundImageFix" result="effect1_dropShadow_165_4"/>
<feBlend mode="normal" in="SourceGraphic" in2="effect1_dropShadow_165_4" result="shape"/>
</filter>
<filter id="filter14_d_165_4" x="911.876" y="2459.78" width="242.18" height="161.447" filterUnits="userSpaceOnUse" color-interpolation-filters="sRGB">
<feFlood flood-opacity="0" result="BackgroundImageFix"/>
<feColorMatrix in="SourceAlpha" type="matrix" values="0 0 0 0 0 0 0 0 0 0 0 0 0 0 0 0 0 0 127 0" result="hardAlpha"/>
<feOffset dy="4"/>
<feGaussianBlur stdDeviation="2"/>
<feComposite in2="hardAlpha" operator="out"/>
<feColorMatrix type="matrix" values="0 0 0 0 0.0284 0 0 0 0 0 0 0 0 0 0.355 0 0 0 0.25 0"/>
<feBlend mode="normal" in2="BackgroundImageFix" result="effect1_dropShadow_165_4"/>
<feBlend mode="normal" in="SourceGraphic" in2="effect1_dropShadow_165_4" result="shape"/>
</filter>
<filter id="filter15_d_165_4" x="172.152" y="1859.51" width="127.949" height="101.272" filterUnits="userSpaceOnUse" color-interpolation-filters="sRGB">
<feFlood flood-opacity="0" result="BackgroundImageFix"/>
<feColorMatrix in="SourceAlpha" type="matrix" values="0 0 0 0 0 0 0 0 0 0 0 0 0 0 0 0 0 0 127 0" result="hardAlpha"/>
<feOffset dy="4"/>
<feGaussianBlur stdDeviation="2"/>
<feComposite in2="hardAlpha" operator="out"/>
<feColorMatrix type="matrix" values="0 0 0 0 0.211467 0 0 0 0 0 0 0 0 0 0.813333 0 0 0 0.25 0"/>
<feBlend mode="normal" in2="BackgroundImageFix" result="effect1_dropShadow_165_4"/>
<feBlend mode="normal" in="SourceGraphic" in2="effect1_dropShadow_165_4" result="shape"/>
</filter>
<filter id="filter16_d_165_4" x="1125.59" y="1954.11" width="191.23" height="142.318" filterUnits="userSpaceOnUse" color-interpolation-filters="sRGB">
<feFlood flood-opacity="0" result="BackgroundImageFix"/>
<feColorMatrix in="SourceAlpha" type="matrix" values="0 0 0 0 0 0 0 0 0 0 0 0 0 0 0 0 0 0 127 0" result="hardAlpha"/>
<feOffset dy="4"/>
<feGaussianBlur stdDeviation="5"/>
<feComposite in2="hardAlpha" operator="out"/>
<feColorMatrix type="matrix" values="0 0 0 0 0.0287584 0 0 0 0 0.0604747 0 0 0 0 0.821667 0 0 0 0.25 0"/>
<feBlend mode="normal" in2="BackgroundImageFix" result="effect1_dropShadow_165_4"/>
<feBlend mode="normal" in="SourceGraphic" in2="effect1_dropShadow_165_4" result="shape"/>
</filter>
<filter id="filter17_f_165_4" x="410" y="1262" width="296" height="309" filterUnits="userSpaceOnUse" color-interpolation-filters="sRGB">
<feFlood flood-opacity="0" result="BackgroundImageFix"/>
<feBlend mode="normal" in="SourceGraphic" in2="BackgroundImageFix" result="shape"/>
<feGaussianBlur stdDeviation="50" result="effect1_foregroundBlur_165_4"/>
</filter>
<filter id="filter18_f_165_4" x="-28.0356" y="2751.13" width="1180.65" height="975.584" filterUnits="userSpaceOnUse" color-interpolation-filters="sRGB">
<feFlood flood-opacity="0" result="BackgroundImageFix"/>
<feBlend mode="normal" in="SourceGraphic" in2="BackgroundImageFix" result="shape"/>
<feGaussianBlur stdDeviation="100" result="effect1_foregroundBlur_165_4"/>
</filter>
<linearGradient id="paint0_linear_165_4" x1="304.5" y1="0.00011697" x2="2258.46" y2="429.667" gradientUnits="userSpaceOnUse">
<stop stop-color="#060049" stop-opacity="0.95"/>
<stop offset="1" stop-color="#250060" stop-opacity="0.65"/>
</linearGradient>
<linearGradient id="paint1_linear_165_4" x1="1192.24" y1="1056.58" x2="1059.58" y2="905.243" gradientUnits="userSpaceOnUse">
<stop stop-color="#2E00B3" stop-opacity="0.29"/>
<stop offset="0.741751" stop-color="#004FC5" stop-opacity="0"/>
</linearGradient>
<linearGradient id="paint2_linear_165_4" x1="157.243" y1="1335.58" x2="24.5761" y2="1184.24" gradientUnits="userSpaceOnUse">
<stop stop-color="#00B33D" stop-opacity="0.31"/>
<stop offset="0.741751" stop-color="#004FC5" stop-opacity="0"/>
</linearGradient>
<linearGradient id="paint3_linear_165_4" x1="1424.01" y1="332.074" x2="1291.34" y2="180.741" gradientUnits="userSpaceOnUse">
<stop stop-color="#0052B3" stop-opacity="0.31"/>
<stop offset="0.741751" stop-color="#004FC5" stop-opacity="0"/>
</linearGradient>
<linearGradient id="paint4_linear_165_4" x1="1432.01" y1="335.408" x2="1316.01" y2="217.408" gradientUnits="userSpaceOnUse">
<stop stop-color="#3200FC"/>
<stop offset="1" stop-color="#3200FC" stop-opacity="0"/>
</linearGradient>
<linearGradient id="paint5_linear_165_4" x1="259.134" y1="2470.47" x2="126.468" y2="2319.13" gradientUnits="userSpaceOnUse">
<stop stop-color="#0052B3" stop-opacity="0.31"/>
<stop offset="0.741751" stop-color="#004FC5" stop-opacity="0"/>
</linearGradient>
<linearGradient id="paint6_linear_165_4" x1="1321.21" y1="1592.55" x2="1188.55" y2="1441.21" gradientUnits="userSpaceOnUse">
<stop stop-color="#0052B3" stop-opacity="0.31"/>
<stop offset="0.741751" stop-color="#004FC5" stop-opacity="0"/>
</linearGradient>
<linearGradient id="paint7_linear_165_4" x1="276.563" y1="681.751" x2="210.229" y2="606.085" gradientUnits="userSpaceOnUse">
<stop stop-color="#0052B3" stop-opacity="0.31"/>
<stop offset="0.741751" stop-color="#004FC5" stop-opacity="0"/>
</linearGradient>
<linearGradient id="paint8_linear_165_4" x1="223.411" y1="694.91" x2="251.219" y2="593.244" gradientUnits="userSpaceOnUse">
<stop stop-color="#000AFF"/>
<stop offset="1" stop-color="#000AFF" stop-opacity="0"/>
</linearGradient>
<linearGradient id="paint9_linear_165_4" x1="983.492" y1="2965.83" x2="850.825" y2="2814.49" gradientUnits="userSpaceOnUse">
<stop stop-color="#0052B3" stop-opacity="0.31"/>
<stop offset="0.741751" stop-color="#004FC5" stop-opacity="0"/>
</linearGradient>
<linearGradient id="paint10_linear_165_4" x1="991.492" y1="2969.16" x2="875.492" y2="2851.16" gradientUnits="userSpaceOnUse">
<stop stop-color="#3200FC"/>
<stop offset="1" stop-color="#3200FC" stop-opacity="0"/>
</linearGradient>
<linearGradient id="paint11_linear_165_4" x1="918.775" y1="2482.18" x2="1147.16" y2="2590.83" gradientUnits="userSpaceOnUse">
<stop stop-color="#4F00CF"/>
<stop offset="1" stop-color="#2D0077" stop-opacity="0"/>
</linearGradient>
<linearGradient id="paint12_linear_165_4" x1="233.934" y1="1952.69" x2="238.319" y2="1859.59" gradientUnits="userSpaceOnUse">
<stop stop-color="#4F00CF"/>
<stop offset="1" stop-color="#2D0077" stop-opacity="0"/>
</linearGradient>
<linearGradient id="paint13_linear_165_4" x1="1136.36" y1="2004.92" x2="1306.05" y2="2037.62" gradientUnits="userSpaceOnUse">
<stop stop-color="#4F00CF"/>
<stop offset="1" stop-color="#2D0077" stop-opacity="0"/>
</linearGradient>
<linearGradient id="paint14_linear_165_4" x1="762.279" y1="4088.11" x2="637.477" y2="3868.14" gradientUnits="userSpaceOnUse">
<stop stop-color="#4200AD"/>
<stop offset="0.494953" stop-color="#2D0077" stop-opacity="0"/>
</linearGradient>
<linearGradient id="paint15_linear_165_4" x1="929.862" y1="452.141" x2="1081.49" y2="844.304" gradientUnits="userSpaceOnUse">
<stop stop-color="#A90098" stop-opacity="0"/>
<stop offset="1" stop-color="#C300BB"/>
</linearGradient>
<linearGradient id="paint16_linear_165_4" x1="90.888" y1="1253.73" x2="117.757" y2="1315.62" gradientUnits="userSpaceOnUse">
<stop offset="0.157835" stop-color="#0016DB" stop-opacity="0"/>
<stop offset="1" stop-color="#00C514"/>
</linearGradient>
<linearGradient id="paint17_linear_165_4" x1="1304.16" y1="1558.34" x2="1233.76" y2="1509.01" gradientUnits="userSpaceOnUse">
<stop offset="0.157835" stop-color="#0016DB" stop-opacity="0"/>
<stop offset="1" stop-color="#C5A500"/>
</linearGradient>
<linearGradient id="paint18_linear_165_4" x1="227.5" y1="2398.98" x2="161.58" y2="2413.4" gradientUnits="userSpaceOnUse">
<stop offset="0.157835" stop-color="#0016DB" stop-opacity="0"/>
<stop offset="1" stop-color="#0014C5"/>
</linearGradient>
<linearGradient id="paint19_linear_165_4" x1="880.697" y1="2923.17" x2="928.908" y2="2875.96" gradientUnits="userSpaceOnUse">
<stop offset="0.157835" stop-color="#0016DB" stop-opacity="0"/>
<stop offset="1" stop-color="#0014C5"/>
</linearGradient>
<linearGradient id="paint20_linear_165_4" x1="264.442" y1="617.035" x2="232.204" y2="676.313" gradientUnits="userSpaceOnUse">
<stop offset="0.157835" stop-color="#0016DB" stop-opacity="0"/>
<stop offset="1" stop-color="#0014C5"/>
</linearGradient>
<linearGradient id="paint21_linear_165_4" x1="1353.5" y1="218.511" x2="1353.5" y2="285.989" gradientUnits="userSpaceOnUse">
<stop offset="0.157835" stop-color="#0016DB" stop-opacity="0"/>
<stop offset="1" stop-color="#0014C5"/>
</linearGradient>
<linearGradient id="paint22_linear_165_4" x1="1113.89" y1="966.726" x2="1140.76" y2="1028.62" gradientUnits="userSpaceOnUse">
<stop offset="0.157835" stop-color="#0016DB" stop-opacity="0"/>
<stop offset="1" stop-color="#002BC5"/>
</linearGradient>
<clipPath id="clip0_165_4">
<rect width="1440" height="4561" fill="white"/>
</clipPath>
</defs>
</svg>
